<svg width="152" height="42" viewBox="0 0 152 42" fill="none" xmlns="http://www.w3.org/2000/svg">
<path fill-rule="evenodd" clip-rule="evenodd" d="M73.0174 15.2796C69.0626 9.41051 62.0458 4.7192 49.9866 5.01306C37.903 5.30752 30.4544 10.1343 26.0025 15.9683C21.896 21.3498 20.2931 27.6526 20.0518 32.2079H45.8808C47.3438 30.2042 49.5748 28.055 52.2379 27.3316C53.8634 26.89 55.6299 26.9883 57.3979 27.9453C58.8874 28.7515 60.3238 30.1372 61.6817 32.2079H77.6492C77.8031 27.3928 76.7166 20.7693 73.0174 15.2796ZM60.568 34.2079C60.5899 34.2455 60.6119 34.2833 60.6338 34.3213L60.8304 34.2079H77.9332L78.1189 34.3057L79.8187 35.2011L6 36.6436V36.5347L19.1782 34.4082L20.0189 34.2725V34.2079H46.6277L46.8517 34.3457C46.8799 34.2999 46.9085 34.2539 46.9376 34.2079H60.568ZM59.2274 32.2079C58.2672 30.9757 57.3282 30.1818 56.4458 29.7042C55.1618 29.0091 53.9282 28.9449 52.7621 29.2616C51.16 29.6968 49.6565 30.8644 48.4503 32.2079H59.2274ZM79.6244 32.8382C79.8931 27.6702 78.8129 20.3012 74.676 14.1619C70.3148 7.68983 62.6334 2.70428 49.9379 3.01365C37.2668 3.32243 29.2437 8.4239 24.4126 14.755C19.8831 20.6908 18.2075 27.6408 18.0341 32.5669L4.84069 34.6959L4 34.8316V35.6832V37.6634V38.6831L5.01954 38.6632L81.0195 37.178L82 37.1589V36.1782V34.6931V34.0895L81.466 33.8083L79.6244 32.8382ZM47 9.45543C33.9732 9.45543 27.191 19.2574 25.4414 24.1393L23.5586 23.4646C25.4757 18.1155 32.8268 7.45543 47 7.45543V9.45543Z" fill="#EF4747"/>
<path d="M85.3008 27V14.2031H89.6865C91.1338 14.2031 92.2354 14.4932 92.9912 15.0732C93.7471 15.6533 94.125 16.5176 94.125 17.666C94.125 18.252 93.9668 18.7793 93.6504 19.248C93.334 19.7168 92.8711 20.0801 92.2617 20.3379C92.9531 20.5254 93.4863 20.8799 93.8613 21.4014C94.2422 21.917 94.4326 22.5381 94.4326 23.2646C94.4326 24.4658 94.0459 25.3887 93.2725 26.0332C92.5049 26.6777 91.4033 27 89.9678 27H85.3008ZM87.5244 21.2256V25.2246H89.9941C90.6914 25.2246 91.2363 25.0518 91.6289 24.7061C92.0215 24.3604 92.2178 23.8799 92.2178 23.2646C92.2178 21.9346 91.5381 21.2549 90.1787 21.2256H87.5244ZM87.5244 19.5908H89.7041C90.3955 19.5908 90.9346 19.4355 91.3213 19.125C91.7139 18.8086 91.9102 18.3633 91.9102 17.7891C91.9102 17.1562 91.7285 16.6992 91.3652 16.418C91.0078 16.1367 90.4482 15.9961 89.6865 15.9961H87.5244V19.5908ZM106.808 27H104.584L98.8799 17.9209V27H96.6562V14.2031H98.8799L104.602 23.3174V14.2031H106.808V27ZM119.587 27H117.363L111.659 17.9209V27H109.436V14.2031H111.659L117.381 23.3174V14.2031H119.587V27ZM123.34 24.75C123.738 24.75 124.046 24.8643 124.263 25.0928C124.479 25.3154 124.588 25.5967 124.588 25.9365C124.588 26.2705 124.479 26.5488 124.263 26.7715C124.046 26.9883 123.738 27.0967 123.34 27.0967C122.959 27.0967 122.657 26.9883 122.435 26.7715C122.212 26.5547 122.101 26.2764 122.101 25.9365C122.101 25.5967 122.209 25.3154 122.426 25.0928C122.643 24.8643 122.947 24.75 123.34 24.75ZM130.916 21.4717L129.466 23.0098V27H127.242V14.2031H129.466V20.2061L130.696 18.6855L134.44 14.2031H137.13L132.375 19.8721L137.402 27H134.766L130.916 21.4717ZM140.689 25.2246H147.527V27H138V25.5586L144.618 15.9961H138.044V14.2031H147.316V15.6094L140.689 25.2246Z" fill="#EF4747"/>
</svg>
